<?xml version="1.0" encoding="UTF-8" standalone="no"?>
<!DOCTYPE svg PUBLIC "-//W3C//DTD SVG 1.1//EN"
 "http://www.w3.org/Graphics/SVG/1.1/DTD/svg11.dtd">
<!-- Generated by graphviz version 5.0.0 (20220707.1540)
 -->
<!-- Title: StorageDiagram Pages: 1 -->
<svg width="1490pt" height="232pt"
 viewBox="0.00 0.00 1490.21 232.40" xmlns="http://www.w3.org/2000/svg" xmlns:xlink="http://www.w3.org/1999/xlink">
<g id="graph0" class="graph" transform="scale(1 1) rotate(0) translate(4 228.4)">
<title>StorageDiagram</title>
<polygon fill="white" stroke="transparent" points="-4,4 -4,-228.4 1486.21,-228.4 1486.21,4 -4,4"/>
<!-- 3 -->
<g id="node1" class="node">
<title>3</title>
<polygon fill="#f2f2f2" stroke="black" points="0,-25.5 0,-223.9 685.7,-223.9 685.7,-25.5 0,-25.5"/>
<text text-anchor="middle" x="342.85" y="-207.3" font-family="Courier New" font-size="14.00">GasContract &lt;&lt;Contract&gt;&gt;</text>
<polyline fill="none" stroke="black" points="0,-199.1 685.7,-199.1 "/>
<text text-anchor="middle" x="24.8" y="-182.5" font-family="Courier New" font-size="14.00">slot</text>
<polyline fill="none" stroke="black" points="0,-174.3 49.61,-174.3 "/>
<text text-anchor="middle" x="24.8" y="-157.7" font-family="Courier New" font-size="14.00">0</text>
<polyline fill="none" stroke="black" points="0,-149.5 49.61,-149.5 "/>
<text text-anchor="middle" x="24.8" y="-132.9" font-family="Courier New" font-size="14.00">1&#45;5</text>
<polyline fill="none" stroke="black" points="0,-124.7 49.61,-124.7 "/>
<text text-anchor="middle" x="24.8" y="-108.1" font-family="Courier New" font-size="14.00">6</text>
<polyline fill="none" stroke="black" points="0,-99.9 49.61,-99.9 "/>
<text text-anchor="middle" x="24.8" y="-83.3" font-family="Courier New" font-size="14.00">7</text>
<polyline fill="none" stroke="black" points="0,-75.1 49.61,-75.1 "/>
<text text-anchor="middle" x="24.8" y="-58.5" font-family="Courier New" font-size="14.00">8</text>
<polyline fill="none" stroke="black" points="0,-50.3 49.61,-50.3 "/>
<text text-anchor="middle" x="24.8" y="-33.7" font-family="Courier New" font-size="14.00">9</text>
<polyline fill="none" stroke="black" points="49.61,-25.5 49.61,-199.1 "/>
<text text-anchor="middle" x="367.65" y="-182.5" font-family="Courier New" font-size="14.00">type: &lt;inherited contract&gt;.variable (bytes)</text>
<polyline fill="none" stroke="black" points="49.61,-174.3 685.7,-174.3 "/>
<text text-anchor="middle" x="124.82" y="-157.7" font-family="Courier New" font-size="14.00">unallocated (10)</text>
<polyline fill="none" stroke="black" points="200.03,-149.5 200.03,-174.3 "/>
<text text-anchor="middle" x="317.25" y="-157.7" font-family="Courier New" font-size="14.00">uint16: paymentCounter (2)</text>
<polyline fill="none" stroke="black" points="434.46,-149.5 434.46,-174.3 "/>
<text text-anchor="middle" x="560.08" y="-157.7" font-family="Courier New" font-size="14.00">address: Ownable._owner (20)</text>
<polyline fill="none" stroke="black" points="49.61,-149.5 685.7,-149.5 "/>
<text text-anchor="middle" x="367.53" y="-132.9" font-family="Courier New" font-size="14.00">address[5]: administrators (160)</text>
<polyline fill="none" stroke="black" points="49.61,-124.7 685.7,-124.7 "/>
<text text-anchor="middle" x="367.63" y="-108.1" font-family="Courier New" font-size="14.00">mapping(address=&gt;bool): admins (32)</text>
<polyline fill="none" stroke="black" points="49.61,-99.9 685.7,-99.9 "/>
<text text-anchor="middle" x="367.43" y="-83.3" font-family="Courier New" font-size="14.00">mapping(address=&gt;uint16): balances (32)</text>
<polyline fill="none" stroke="black" points="49.61,-75.1 685.7,-75.1 "/>
<text text-anchor="middle" x="367.63" y="-58.5" font-family="Courier New" font-size="14.00">mapping(address=&gt;uint16): whitelist (32)</text>
<polyline fill="none" stroke="black" points="49.61,-50.3 685.7,-50.3 "/>
<text text-anchor="middle" x="367.53" y="-33.7" font-family="Courier New" font-size="14.00">mapping(address=&gt;Payment[]): payments (32)</text>
</g>
<!-- 1 -->
<g id="node2" class="node">
<title>1</title>
<polygon fill="#f2f2f2" stroke="black" points="942.73,-99.5 942.73,-173.9 1261.18,-173.9 1261.18,-99.5 942.73,-99.5"/>
<text text-anchor="middle" x="1101.96" y="-157.3" font-family="Courier New" font-size="14.00">address[5]: administrators &lt;&lt;Array&gt;&gt;</text>
<polyline fill="none" stroke="black" points="942.73,-149.1 1261.18,-149.1 "/>
<text text-anchor="middle" x="976.03" y="-132.5" font-family="Courier New" font-size="14.00">slot</text>
<polyline fill="none" stroke="black" points="942.73,-124.3 1009.34,-124.3 "/>
<text text-anchor="middle" x="976.03" y="-107.7" font-family="Courier New" font-size="14.00">1</text>
<polyline fill="none" stroke="black" points="1009.34,-99.5 1009.34,-149.1 "/>
<text text-anchor="middle" x="1135.15" y="-132.5" font-family="Courier New" font-size="14.00">type: variable (bytes)</text>
<polyline fill="none" stroke="black" points="1009.34,-124.3 1260.97,-124.3 "/>
<text text-anchor="middle" x="1072.25" y="-107.7" font-family="Courier New" font-size="14.00">address (20)</text>
<polyline fill="none" stroke="black" points="1135.15,-99.5 1135.15,-124.3 "/>
<text text-anchor="middle" x="1198.06" y="-107.7" font-family="Courier New" font-size="14.00">address (20)</text>
</g>
<!-- 3&#45;&gt;1 -->
<g id="edge1" class="edge">
<title>3:8&#45;&gt;1</title>
<path fill="none" stroke="black" d="M685.7,-136.7C766.94,-136.7 857.13,-136.7 932.63,-136.7"/>
<polygon fill="black" stroke="black" points="932.71,-140.2 942.71,-136.7 932.71,-133.2 932.71,-140.2"/>
</g>
<!-- 2 -->
<g id="node3" class="node">
<title>2</title>
<polygon fill="#f2f2f2" stroke="black" points="721.7,-0.5 721.7,-74.9 1482.21,-74.9 1482.21,-0.5 721.7,-0.5"/>
<text text-anchor="middle" x="1101.96" y="-58.3" font-family="Courier New" font-size="14.00">Payment &lt;&lt;Struct&gt;&gt;</text>
<polyline fill="none" stroke="black" points="721.7,-50.1 1482.21,-50.1 "/>
<text text-anchor="middle" x="746.5" y="-33.5" font-family="Courier New" font-size="14.00">slot</text>
<polyline fill="none" stroke="black" points="721.7,-25.3 771.31,-25.3 "/>
<text text-anchor="middle" x="746.5" y="-8.7" font-family="Courier New" font-size="14.00">0</text>
<polyline fill="none" stroke="black" points="771.31,-0.5 771.31,-50.1 "/>
<text text-anchor="middle" x="1126.76" y="-33.5" font-family="Courier New" font-size="14.00">type: variable (bytes)</text>
<polyline fill="none" stroke="black" points="771.31,-25.3 1482.21,-25.3 "/>
<text text-anchor="middle" x="846.52" y="-8.7" font-family="Courier New" font-size="14.00">unallocated (27)</text>
<polyline fill="none" stroke="black" points="921.73,-0.5 921.73,-25.3 "/>
<text text-anchor="middle" x="1005.34" y="-8.7" font-family="Courier New" font-size="14.00">uint16: amount (2)</text>
<polyline fill="none" stroke="black" points="1088.95,-0.5 1088.95,-25.3 "/>
<text text-anchor="middle" x="1185.17" y="-8.7" font-family="Courier New" font-size="14.00">uint16: paymentID (2)</text>
<polyline fill="none" stroke="black" points="1281.38,-0.5 1281.38,-25.3 "/>
<text text-anchor="middle" x="1381.8" y="-8.7" font-family="Courier New" font-size="14.00">uint8: paymentType (1)</text>
</g>
<!-- 3&#45;&gt;2 -->
<g id="edge2" class="edge">
<title>3:15&#45;&gt;2</title>
<path fill="none" stroke="black" d="M685.7,-37.7C694.19,-37.7 702.77,-37.7 711.42,-37.7"/>
<polygon fill="black" stroke="black" points="711.61,-41.2 721.61,-37.7 711.61,-34.2 711.61,-41.2"/>
</g>
</g>
</svg>
