<?xml version="1.0" encoding="UTF-8" standalone="no"?>
<!DOCTYPE svg PUBLIC "-//W3C//DTD SVG 1.1//EN"
 "http://www.w3.org/Graphics/SVG/1.1/DTD/svg11.dtd">
<!-- Generated by graphviz version 5.0.0 (20220707.1540)
 -->
<!-- Title: StorageDiagram Pages: 1 -->
<svg width="1239pt" height="232pt"
 viewBox="0.00 0.00 1238.97 232.40" xmlns="http://www.w3.org/2000/svg" xmlns:xlink="http://www.w3.org/1999/xlink">
<g id="graph0" class="graph" transform="scale(1 1) rotate(0) translate(4 228.4)">
<title>StorageDiagram</title>
<polygon fill="white" stroke="transparent" points="-4,4 -4,-228.4 1234.97,-228.4 1234.97,4 -4,4"/>
<!-- 3 -->
<g id="node1" class="node">
<title>3</title>
<polygon fill="#f2f2f2" stroke="black" points="0,-25.5 0,-223.9 434.46,-223.9 434.46,-25.5 0,-25.5"/>
<text text-anchor="middle" x="217.23" y="-207.3" font-family="Courier New" font-size="14.00">GasContract &lt;&lt;Contract&gt;&gt;</text>
<polyline fill="none" stroke="black" points="0,-199.1 434.46,-199.1 "/>
<text text-anchor="middle" x="24.8" y="-182.5" font-family="Courier New" font-size="14.00">slot</text>
<polyline fill="none" stroke="black" points="0,-174.3 49.61,-174.3 "/>
<text text-anchor="middle" x="24.8" y="-157.7" font-family="Courier New" font-size="14.00">0</text>
<polyline fill="none" stroke="black" points="0,-149.5 49.61,-149.5 "/>
<text text-anchor="middle" x="24.8" y="-132.9" font-family="Courier New" font-size="14.00">1&#45;5</text>
<polyline fill="none" stroke="black" points="0,-124.7 49.61,-124.7 "/>
<text text-anchor="middle" x="24.8" y="-108.1" font-family="Courier New" font-size="14.00">6</text>
<polyline fill="none" stroke="black" points="0,-99.9 49.61,-99.9 "/>
<text text-anchor="middle" x="24.8" y="-83.3" font-family="Courier New" font-size="14.00">7</text>
<polyline fill="none" stroke="black" points="0,-75.1 49.61,-75.1 "/>
<text text-anchor="middle" x="24.8" y="-58.5" font-family="Courier New" font-size="14.00">8</text>
<polyline fill="none" stroke="black" points="0,-50.3 49.61,-50.3 "/>
<text text-anchor="middle" x="24.8" y="-33.7" font-family="Courier New" font-size="14.00">9</text>
<polyline fill="none" stroke="black" points="49.61,-25.5 49.61,-199.1 "/>
<text text-anchor="middle" x="242.03" y="-182.5" font-family="Courier New" font-size="14.00">type: &lt;inherited contract&gt;.variable (bytes)</text>
<polyline fill="none" stroke="black" points="49.61,-174.3 434.46,-174.3 "/>
<text text-anchor="middle" x="124.82" y="-157.7" font-family="Courier New" font-size="14.00">unallocated (30)</text>
<polyline fill="none" stroke="black" points="200.03,-149.5 200.03,-174.3 "/>
<text text-anchor="middle" x="317.25" y="-157.7" font-family="Courier New" font-size="14.00">uint16: paymentCounter (2)</text>
<polyline fill="none" stroke="black" points="49.61,-149.5 434.46,-149.5 "/>
<text text-anchor="middle" x="242.03" y="-132.9" font-family="Courier New" font-size="14.00">address[5]: administrators (160)</text>
<polyline fill="none" stroke="black" points="49.61,-124.7 434.46,-124.7 "/>
<text text-anchor="middle" x="241.63" y="-108.1" font-family="Courier New" font-size="14.00">mapping(address=&gt;bool): admins (32)</text>
<polyline fill="none" stroke="black" points="49.61,-99.9 434.46,-99.9 "/>
<text text-anchor="middle" x="241.93" y="-83.3" font-family="Courier New" font-size="14.00">mapping(address=&gt;uint16): balances (32)</text>
<polyline fill="none" stroke="black" points="49.61,-75.1 434.46,-75.1 "/>
<text text-anchor="middle" x="241.63" y="-58.5" font-family="Courier New" font-size="14.00">mapping(address=&gt;uint16): whitelist (32)</text>
<polyline fill="none" stroke="black" points="49.61,-50.3 434.46,-50.3 "/>
<text text-anchor="middle" x="242.03" y="-33.7" font-family="Courier New" font-size="14.00">mapping(address=&gt;Payment[]): payments (32)</text>
</g>
<!-- 1 -->
<g id="node2" class="node">
<title>1</title>
<polygon fill="#f2f2f2" stroke="black" points="691.49,-99.5 691.49,-173.9 1009.94,-173.9 1009.94,-99.5 691.49,-99.5"/>
<text text-anchor="middle" x="850.72" y="-157.3" font-family="Courier New" font-size="14.00">address[5]: administrators &lt;&lt;Array&gt;&gt;</text>
<polyline fill="none" stroke="black" points="691.49,-149.1 1009.94,-149.1 "/>
<text text-anchor="middle" x="724.8" y="-132.5" font-family="Courier New" font-size="14.00">slot</text>
<polyline fill="none" stroke="black" points="691.49,-124.3 758.1,-124.3 "/>
<text text-anchor="middle" x="724.8" y="-107.7" font-family="Courier New" font-size="14.00">1</text>
<polyline fill="none" stroke="black" points="758.1,-99.5 758.1,-149.1 "/>
<text text-anchor="middle" x="883.92" y="-132.5" font-family="Courier New" font-size="14.00">type: variable (bytes)</text>
<polyline fill="none" stroke="black" points="758.1,-124.3 1009.73,-124.3 "/>
<text text-anchor="middle" x="821.01" y="-107.7" font-family="Courier New" font-size="14.00">address (20)</text>
<polyline fill="none" stroke="black" points="883.92,-99.5 883.92,-124.3 "/>
<text text-anchor="middle" x="946.82" y="-107.7" font-family="Courier New" font-size="14.00">address (20)</text>
</g>
<!-- 3&#45;&gt;1 -->
<g id="edge1" class="edge">
<title>3:7&#45;&gt;1</title>
<path fill="none" stroke="black" d="M434.46,-136.7C515.7,-136.7 605.89,-136.7 681.4,-136.7"/>
<polygon fill="black" stroke="black" points="681.48,-140.2 691.48,-136.7 681.48,-133.2 681.48,-140.2"/>
</g>
<!-- 2 -->
<g id="node3" class="node">
<title>2</title>
<polygon fill="#f2f2f2" stroke="black" points="470.46,-0.5 470.46,-74.9 1230.97,-74.9 1230.97,-0.5 470.46,-0.5"/>
<text text-anchor="middle" x="850.72" y="-58.3" font-family="Courier New" font-size="14.00">Payment &lt;&lt;Struct&gt;&gt;</text>
<polyline fill="none" stroke="black" points="470.46,-50.1 1230.97,-50.1 "/>
<text text-anchor="middle" x="495.27" y="-33.5" font-family="Courier New" font-size="14.00">slot</text>
<polyline fill="none" stroke="black" points="470.46,-25.3 520.07,-25.3 "/>
<text text-anchor="middle" x="495.27" y="-8.7" font-family="Courier New" font-size="14.00">0</text>
<polyline fill="none" stroke="black" points="520.07,-0.5 520.07,-50.1 "/>
<text text-anchor="middle" x="875.52" y="-33.5" font-family="Courier New" font-size="14.00">type: variable (bytes)</text>
<polyline fill="none" stroke="black" points="520.07,-25.3 1230.97,-25.3 "/>
<text text-anchor="middle" x="595.28" y="-8.7" font-family="Courier New" font-size="14.00">unallocated (27)</text>
<polyline fill="none" stroke="black" points="670.49,-0.5 670.49,-25.3 "/>
<text text-anchor="middle" x="754.1" y="-8.7" font-family="Courier New" font-size="14.00">uint16: amount (2)</text>
<polyline fill="none" stroke="black" points="837.71,-0.5 837.71,-25.3 "/>
<text text-anchor="middle" x="933.93" y="-8.7" font-family="Courier New" font-size="14.00">uint16: paymentID (2)</text>
<polyline fill="none" stroke="black" points="1030.14,-0.5 1030.14,-25.3 "/>
<text text-anchor="middle" x="1130.56" y="-8.7" font-family="Courier New" font-size="14.00">uint8: paymentType (1)</text>
</g>
<!-- 3&#45;&gt;2 -->
<g id="edge2" class="edge">
<title>3:14&#45;&gt;2</title>
<path fill="none" stroke="black" d="M434.46,-37.7C442.95,-37.7 451.53,-37.7 460.18,-37.7"/>
<polygon fill="black" stroke="black" points="460.37,-41.2 470.37,-37.7 460.37,-34.2 460.37,-41.2"/>
</g>
</g>
</svg>
